#N canvas 360 83 800 500 10;
#X obj 464 356 bng 40 250 50 0 bang empty empty 17 7 0 10 #c6ffc7 #000000
#000000;
#X obj 571 355 bng 40 250 50 0 bang2 empty empty 17 7 0 10 #c7c6ff
#000000 #000000;
#X obj 677 356 bng 40 250 50 0 bang2 empty empty 17 7 0 10 #e3c6ff
#000000 #000000;
#N canvas 438 236 953 626 inst 0;
#X obj 344 483 dac~;
#N canvas 390 89 891 788 oscillators 0;
#X obj 81 125 phasor~;
#X floatatom 78 78 5 0 0 0 - - - 0;
#X obj 224 132 phasor~;
#X obj 221 174 expr~ $v1 *2 + 1;
#X obj 90 35 inlet;
#X obj 82 228 outlet~;
#X obj 79 194 expr~ $v1 *2 + 2;
#X obj 89 156 bp~, f 10;
#X obj 220 95 * 1.1;
#X connect 0 0 7 0;
#X connect 1 0 0 0;
#X connect 1 0 8 0;
#X connect 2 0 3 0;
#X connect 4 0 1 0;
#X connect 6 0 5 0;
#X connect 7 0 6 0;
#X connect 8 0 2 0;
#X restore 337 240 pd oscillators;
#X floatatom 337 201 5 0 0 0 - - - 0;
#X obj 337 161 mtof;
#N canvas 622 133 450 300 filters 0;
#X obj 88 113 bob~, f 11;
#X msg 122 84 300;
#X msg 172 80 1.5;
#X obj 155 52 loadbang;
#X obj 94 171 outlet~;
#X obj 88 58 inlet~;
#X floatatom 254 70 5 0 0 0 - - - 0;
#X obj 257 35 receive cutoff1;
#X obj 249 192 * 10000;
#X obj 247 225 + 20;
#X obj 247 113 / 100;
#X obj 242 155 pow 2;
#X connect 0 0 4 0;
#X connect 1 0 0 1;
#X connect 2 0 0 2;
#X connect 3 0 1 0;
#X connect 3 0 2 0;
#X connect 5 0 0 0;
#X connect 6 0 10 0;
#X connect 7 0 6 0;
#X connect 8 0 9 0;
#X connect 9 0 0 1;
#X connect 10 0 11 0;
#X connect 11 0 8 0;
#X restore 314 264 pd filters;
#X obj 337 81 notein;
#X obj 337 121 stripnote;
#X floatatom 412 154 5 0 0 0 - - - 0;
#N canvas 578 303 450 300 amplifiers 0;
#X obj 94 200 vline~;
#X obj 89 241 *~;
#X msg 89 143 \$1 5 \, \$2 200 5;
#X obj 89 52 / 127;
#X obj 219 57 sel 0;
#X obj 148 52 * 0.5;
#X obj 92 111 pack;
#X obj 90 10 inlet;
#X obj 222 14 inlet;
#X obj 39 18 inlet~;
#X obj 91 275 outlet~;
#X floatatom 306 87 5 0 0 0 - - - 0;
#X obj 300 62 receive releaseRate;
#X obj 323 119 * 20;
#X floatatom 323 140 5 0 0 0 - - - 0;
#X msg 207 243 0 \$1, f 8;
#X obj 301 182 f;
#X obj 272 135 bng 15 250 50 0 empty empty empty 17 7 0 10 #fcfcfc
#000000 #000000;
#X obj 372 171 loadbang;
#X msg 372 192 700;
#X connect 0 0 1 1;
#X connect 1 0 10 0;
#X connect 2 0 0 0;
#X connect 3 0 6 0;
#X connect 4 0 17 0;
#X connect 5 0 6 1;
#X connect 6 0 2 0;
#X connect 7 0 3 0;
#X connect 8 0 4 0;
#X connect 9 0 1 0;
#X connect 11 0 13 0;
#X connect 12 0 11 0;
#X connect 13 0 14 0;
#X connect 14 0 16 1;
#X connect 15 0 0 1;
#X connect 16 0 15 0;
#X connect 17 0 16 0;
#X connect 18 0 19 0;
#X connect 19 0 16 1;
#X restore 325 338 pd amplifiers;
#X obj 344 443 *~;
#X floatatom 622 466 5 0 0 0 - - - 0;
#X floatatom 441 289 5 0 1 0 - - - 0;
#X obj 441 368 send cutoff1;
#X obj 641 546 send releserate;
#N canvas 190 173 683 449 effects 0;
#X obj 106 122 inlet~;
#X obj 99 316 outlet~;
#X obj 133 205 +~;
#X obj 572 238 delwrite~ delL 1000;
#X obj 551 178 delread~ delL 100;
#X obj 468 206 *~ 0.5;
#X obj 208 133 hsl 128 15 0 990 0 0 empty empty Delay_Time -2 -8 0
10 #fcfcfc #000000 #000000 0 1;
#X obj 206 170 hsl 128 15 0 1 0 0 empty empty Feedback -2 -8 0 10 #fcfcfc
#000000 #000000 0 1;
#X obj 341 29 loadbang;
#X msg 431 68 100;
#X msg 474 70 0;
#X text 665 179 read from delay line at set point;
#X text 513 203 feedback multiplier;
#X text 699 236 write input and feedback to DL;
#X text 504 71 initialise;
#X text 41 123 signal in;
#X obj 199 45 receive rate;
#X obj 281 275 receive rate1;
#X connect 0 0 2 0;
#X connect 2 0 3 0;
#X connect 2 0 1 0;
#X connect 4 0 5 0;
#X connect 5 0 2 1;
#X connect 6 0 4 0;
#X connect 7 0 5 1;
#X connect 8 0 9 0;
#X connect 8 0 10 0;
#X connect 9 0 6 0;
#X connect 10 0 7 0;
#X connect 16 0 6 0;
#X connect 17 0 7 0;
#X restore 153 294 pd effects;
#X obj 167 436 hsl 128 15 0 990 0 0 empty empty empty -2 -8 0 10 #feffc6
#000000 #000000 0 1;
#X obj 96 470 send rate;
#X obj 317 542 hsl 128 15 0 1 0 0 empty empty empty -2 -8 0 10 #00faff
#000000 #000000 0 1;
#X obj 114 562 send rate1;
#X obj 153 374 dac~;
#X obj 580 178 tgl 15 0 empty empty empty 17 7 0 10 #fcfcfc #000000
#000000 0 1;
#N canvas 665 132 450 300 two_notes 0;
#X obj 37 37 inlet;
#X obj 37 58 metro 500;
#X obj 37 79 tgl 15 0 empty empty empty 17 7 0 10 #fcfcfc #000000 #000000
0 1;
#X obj 37 100 sel 0 1;
#X msg 38 122 55;
#X msg 69 122 67;
#X floatatom 69 143 5 0 0 0 - - - 0;
#X obj 69 163 outlet;
#X obj 290 155 ctlin 2 1;
#X floatatom 253 193 5 0 0 0 - - - 0;
#X obj 237 224 / 80;
#X connect 0 0 1 0;
#X connect 1 0 2 0;
#X connect 2 0 3 0;
#X connect 3 0 4 0;
#X connect 3 1 5 0;
#X connect 4 0 6 0;
#X connect 5 0 6 0;
#X connect 6 0 7 0;
#X connect 8 0 9 0;
#X connect 9 0 10 0;
#X restore 581 229 pd two_notes;
#X obj 664 178 tgl 15 0 empty empty empty 17 7 0 10 #fcfcfc #000000
#000000 0 1;
#N canvas 273 381 617 469 many_notes 0;
#X obj 37 37 inlet;
#X obj 37 255 outlet;
#X obj 37 96 f 0;
#X obj 36 138 % 8;
#X obj 179 150 table pitches;
#X obj 37 188 tabread pitches;
#X floatatom 37 212 5 0 0 0 - - - 0;
#X obj 37 117 + 1;
#X floatatom 37 159 5 0 0 0 - - - 0;
#X obj 182 43 loadbang;
#X msg 180 81 \; pitches 0 60 72 48 58 63 70 80 65;
#X obj 37 58 metro 250;
#X connect 0 0 11 0;
#X connect 2 0 7 0;
#X connect 3 0 2 1;
#X connect 3 0 8 0;
#X connect 5 0 6 0;
#X connect 6 0 1 0;
#X connect 7 0 3 0;
#X connect 8 0 5 0;
#X connect 9 0 10 0;
#X connect 11 0 2 0;
#X restore 665 229 pd many_notes;
#X obj 581 308 s notes;
#X floatatom 581 269 5 0 0 0 - - - 0;
#X obj 153 175 r notes;
#X floatatom 153 228 5 36 144 0 - - - 0;
#X msg 152 204 next \$1;
#N canvas 325 288 656 546 more_notes 0;
#X obj 37 37 inlet;
#X obj 37 255 outlet;
#X obj 37 96 f 0;
#X obj 37 188 tabread pitches;
#X floatatom 37 212 5 0 0 0 - - - 0;
#X obj 37 117 + 1;
#X floatatom 37 159 5 0 0 0 - - - 0;
#X obj 182 43 loadbang;
#X obj 37 58 metro 250;
#X msg 182 80 \; pitches 0 60 72 84 87 63 70 80 65 75 77;
#X msg 231 165 \; pitches 0 60 72 84 91 63 70 80 65 75 77;
#X msg 197 253 \; pitches 0 60 72 84 91 63 89 80 87 82 77;
#X obj 37 138 % 9;
#X obj 251 137 bng 15 250 50 0 empty empty empty 17 7 0 10 #fcfcfc
#000000 #000000;
#X obj 333 129 r bang;
#X obj 212 209 bng 15 250 50 0 empty empty empty 17 7 0 10 #fcfcfc
#000000 #000000;
#X obj 294 201 r bang1;
#X obj 342 34 bng 15 250 50 0 empty empty empty 17 7 0 10 #fcfcfc #000000
#000000;
#X obj 424 26 r bang2;
#X connect 0 0 8 0;
#X connect 2 0 5 0;
#X connect 3 0 4 0;
#X connect 4 0 1 0;
#X connect 5 0 12 0;
#X connect 6 0 3 0;
#X connect 7 0 9 0;
#X connect 8 0 2 0;
#X connect 12 0 2 1;
#X connect 12 0 6 0;
#X connect 13 0 10 0;
#X connect 14 0 13 0;
#X connect 15 0 11 0;
#X connect 16 0 15 0;
#X connect 17 0 9 0;
#X connect 18 0 17 0;
#X restore 757 229 pd more_notes;
#X obj 153 254 clone synth.cl 64;
#X obj 153 334 *~ 0.25;
#X obj 337 41 r notes;
#X obj 622 505 / 127;
#X obj 728 178 tgl 15 0 empty empty empty 17 7 0 10 #fcfcfc #000000
#000000 0 1;
#X floatatom 780 164 5 0 0 0 - - - 0;
#X obj 622 426 ctlin 1 1;
#X obj 780 124 ctlin 6;
#X obj 441 249 ctlin 2 1;
#X floatatom 521 148 5 0 0 0 - - - 0;
#X obj 521 108 ctlin 5;
#X obj 441 328 / 1.1;
#X obj 196 511 r rate1;
#X obj 97 397 r rate;
#X obj 617 586 s midi;
#X obj 666 82 r multinotes;
#X floatatom 436 419 5 0 0 0 - - - 0;
#X msg 425 439 \$1 100;
#X obj 423 466 line~;
#X obj 513 399 loadbang;
#X msg 513 426 0.1;
#X msg 563 432 13;
#X obj 677 27 r dsp;
#X obj 542 36 tgl 15 0 empty empty empty 17 7 0 10 #fcfcfc #000000
#000000 0 1;
#X msg 577 66 \; pd dsp \$1;
#X obj 587 18 r dsp;
#X connect 1 0 4 0;
#X connect 2 0 1 0;
#X connect 3 0 2 0;
#X connect 4 0 8 0;
#X connect 5 0 6 0;
#X connect 5 1 6 1;
#X connect 5 1 8 2;
#X connect 6 0 3 0;
#X connect 6 1 7 0;
#X connect 7 0 8 1;
#X connect 8 0 9 0;
#X connect 9 0 0 0;
#X connect 9 0 0 1;
#X connect 10 0 33 0;
#X connect 11 0 41 0;
#X connect 14 0 31 0;
#X connect 14 0 9 0;
#X connect 15 0 14 0;
#X connect 15 0 16 0;
#X connect 17 0 14 0;
#X connect 17 0 18 0;
#X connect 20 0 21 0;
#X connect 21 0 25 0;
#X connect 22 0 23 0;
#X connect 22 0 29 0;
#X connect 23 0 25 0;
#X connect 25 0 24 0;
#X connect 26 0 27 0;
#X connect 27 0 28 0;
#X connect 28 0 30 0;
#X connect 29 0 25 0;
#X connect 30 0 14 0;
#X connect 31 0 19 0;
#X connect 31 0 19 1;
#X connect 32 0 6 0;
#X connect 33 0 13 0;
#X connect 33 0 17 0;
#X connect 33 0 44 0;
#X connect 34 0 29 0;
#X connect 35 0 29 0;
#X connect 36 0 10 0;
#X connect 37 0 35 0;
#X connect 38 0 11 0;
#X connect 39 0 21 0;
#X connect 40 0 39 0;
#X connect 41 0 12 0;
#X connect 41 0 46 0;
#X connect 42 0 17 0;
#X connect 43 0 15 0;
#X connect 45 0 22 0;
#X connect 46 0 47 0;
#X connect 47 0 48 0;
#X connect 48 0 9 1;
#X connect 49 0 50 0;
#X connect 49 0 51 0;
#X connect 50 0 46 0;
#X connect 53 0 54 0;
#X connect 55 0 53 0;
#X restore 696 23 pd inst;
#X obj 207 143 vsl 25 128 0 1 0 0 rate1 midi Frequency 0 -9 0 10 #00faff
#000000 #000000 0 1;
#X obj 78 147 vsl 25 128 0 990 0 0 rate empty Delay 0 -9 0 10 #faff00
#000000 #000000 0 1;
#X msg 131 69 200;
#X msg 72 69 120;
#X msg 21 72 7;
#X obj 575 237 tgl 60 0 multinotes empty Arpeggiator 65 10 0 10 #bbbbbb
#000000 #000000 0 1;
#X obj 77 334 tgl 55 0 dsp empty ON\ /\ OFF 60 20 0 10 #00ff04 #000000
#000000 0 1;
#X text 436 404 variation 1;
#X text 541 402 variation 2;
#X text 653 400 variation 3;
#X text 234 150 rotate the knob / manually for frequency change;
#X text 11 33 Change the parameter by clicking the message box / manually
;
#X text 21 404 Start by turning on and click the Button C in the board
;
#X text 425 207 For extra arp and joing melody click on this;
#X text 409 65 IMP : For more notes to make melody sound the button
A and B should be kept pressed alternatively with moving the tool for
the change;
#X connect 6 0 5 0;
#X connect 7 0 5 0;
#X connect 8 0 5 0;
